:SAMPLES-PER-SECOND 30
:FULLY-SPECIFIED
:DEGREES
50
root  -1.61175 40.3038 8.31873 178.108 -34.9831 176.964
RightUpLeg  6.59287 -9.83465 -12.0579
RightLeg  3.69142 -13.9561 -2.7955
RightFoot  0.00606712 -1.12734 11.313
RightToes  6.35927e-011 1.30204e-014 -6.03759e-014
Spine  3.20452 -1.45769 3.50757
Spine1  8.83158 -1.97919 2.08448
HEad  -3.0863 35.5821 -12.7637
LeftShoulder1  1.84728 -4.46098 -16.4796
LeftArm  29.0118 -6.12994 -43.6802
LeftForeArm  65.2361 -66.5408 -18.9098
LeftHand  1.134 -2.28548 -16.8814
RightShoulder  1.79992 3.19939 20.5304
RightArm  14.0662 -18.777 57.0394
RightForeArm  48.4119 60.5831 15.3846
RightHand  0.263451 -2.22921 10.267
LeftUpLeg  -0.811613 10.5145 6.79845
LeftLeg  -5.12194 26.1878 -3.62682
LeftFoot  17.0478 1.48413 -6.27772
LeftToes  7.40077e-010 7.2695e-011 -6.03601e-011
51
root  -1.3988 40.351 8.27274 178.712 -33.5899 176.742
RightUpLeg  5.2878 -9.11414 -11.3159
RightLeg  3.9587 -13.7634 -3.52866
RightFoot  0.294736 -1.12431 11.0242
RightToes  6.35927e-011 1.30204e-014 -6.03759e-014
Spine  3.37111 -0.683402 2.64105
Spine1  8.48431 -1.37003 2.97791
HEad  -2.76459 35.3737 -12.3294
LeftShoulder1  1.85218 -4.32504 -16.9848
LeftArm  31.5855 -3.66058 -44.908
LeftForeArm  64.2595 -64.3359 -16.8675
LeftHand  1.23244 -3.28676 -16.178
RightShoulder  1.80366 3.11362 20.9668
RightArm  10.5057 -19.4772 56.3068
RightForeArm  45.2556 61.7189 16.5794
RightHand  0.295503 -1.73097 9.7018
LeftUpLeg  -1.67106 11.3632 7.49857
LeftLeg  -3.90281 26.4237 -3.7101
LeftFoot  17.9743 1.88362 -7.62099
LeftToes  7.40077e-010 7.2695e-011 -6.03601e-011
52
root  -1.03365 40.3459 8.22354 179.088 -32.8052 178.005
RightUpLeg  3.32475 -7.92387 -8.92478
RightLeg  4.5092 -14.9586 -4.03435
RightFoot  0.555564 -1.05019 10.0914
RightToes  6.35927e-011 1.30204e-014 -6.03759e-014
Spine  3.54547 0.00469726 1.30899
Spine1  7.52665 -1.3804 6.05339
HEad  -2.5982 35.326 -12.1239
LeftShoulder1  1.85482 -4.18749 -17.4802
LeftArm  33.4539 -0.336019 -46.5792
LeftForeArm  62.4852 -61.4027 -14.6961
LeftHand  1.17007 -3.97724 -14.1671
RightShoulder  1.76799 2.88361 21.4214
RightArm  4.9095 -20.7562 54.7674
RightForeArm  38.6295 63.3068 18.7192
RightHand  0.437986 0.338463 8.92041
LeftUpLeg  -3.89626 12.5443 9.33097
LeftLeg  -1.62256 25.9484 -3.10599
LeftFoot  18.0985 2.13286 -8.53603
LeftToes  7.40077e-010 7.2695e-011 -6.03601e-011
53
root  -0.560621 40.2094 8.16257 178.976 -33.1175 -178.666
RightUpLeg  0.764256 -6.43286 -4.83567
RightLeg  5.58342 -17.5036 -3.99238
RightFoot  0.314162 -0.916672 8.97325
RightToes  6.35927e-011 1.30204e-014 -6.03759e-014
Spine  3.81956 0.33948 0.0840474
Spine1  5.41974 -2.18945 11.4843
HEad  -2.21192 35.5196 -12.0753
LeftShoulder1  1.88049 -4.14263 -17.9964
LeftArm  34.4735 4.09321 -48.4124
LeftForeArm  60.6954 -58.3588 -12.865
LeftHand  0.975817 -4.07697 -11.6536
RightShoulder  1.74104 2.70884 21.7923
RightArm  -1.95148 -22.7789 52.4405
RightForeArm  28.9678 65.288 22.0951
RightHand  0.344049 3.12484 4.63134
LeftUpLeg  -9.12241 17.2829 12.0041
LeftLeg  4.12063 21.066 -1.10772
LeftFoot  16.6973 2.18469 -9.15576
LeftToes  7.40077e-010 7.2695e-011 -6.03601e-011
54
root  -0.0328921 39.8277 8.06414 177.639 -34.6411 -173.057
RightUpLeg  -2.13173 -4.60252 0.768674
RightLeg  7.87206 -21.0612 -3.97777
RightFoot  -1.15759 -0.806429 8.97101
RightToes  6.35927e-011 1.30204e-014 -6.03759e-014
Spine  4.97939 0.314719 -0.757903
Spine1  1.47325 -3.49134 19.5227
HEad  -1.28277 35.8161 -12.0014
LeftShoulder1  1.88598 -4.14813 -18.0552
LeftArm  34.8734 9.54411 -50.5722
LeftForeArm  60.0908 -56.1703 -11.6975
LeftHand  0.849521 -4.28315 -9.8865
RightShoulder  1.69582 2.52239 21.9188
RightArm  -9.51456 -25.2888 49.8438
RightForeArm  17.2225 67.9912 27.786
RightHand  -0.300265 4.25247 -4.00002
LeftUpLeg  -18.4554 28.2145 14.0182
LeftLeg  14.2065 8.37908 2.06272
LeftFoot  14.715 2.27167 -10.1923
LeftToes  7.40077e-010 7.2695e-011 -6.03601e-011
